<svg width="721" height="721" viewBox="0 0 721 721" fill="none" xmlns="http://www.w3.org/2000/svg">
<g clip-path="url(#clip0_106_2)">
<rect width="721" height="721" rx="150" fill="url(#paint0_linear_106_2)"/>
<path d="M184.453 425.609L112.773 426C111.471 426 110.82 425.349 110.82 424.047L111.602 149.242C111.602 148.201 112.122 147.68 113.164 147.68L187.969 147.289C202.812 146.898 216.224 150.284 228.203 157.445C240.312 164.607 249.948 174.307 257.109 186.547C264.401 198.656 268.047 212.068 268.047 226.781V341.625C268.047 356.99 264.336 371.052 256.914 383.812C249.362 396.443 239.336 406.534 226.836 414.086C214.336 421.508 200.208 425.349 184.453 425.609ZM187.969 195.141L160.039 195.531L159.648 376.781H184.453C194.349 376.781 202.682 373.331 209.453 366.43C216.224 359.529 219.609 351.26 219.609 341.625V226.391C219.609 217.927 216.484 210.57 210.234 204.32C203.984 197.94 196.562 194.88 187.969 195.141ZM430.352 426H301.055C300.013 426 299.492 425.349 299.492 424.047L299.883 149.242C299.883 148.201 300.404 147.68 301.445 147.68H429.961C431.003 147.68 431.523 148.331 431.523 149.633V194.359C431.523 195.401 431.003 195.922 429.961 195.922H347.93V258.422H429.961C431.003 258.422 431.523 258.943 431.523 259.984L431.914 305.297C431.914 306.339 431.393 306.859 430.352 306.859H347.93V376.781H430.352C431.393 376.781 431.914 377.432 431.914 378.734V424.438C431.914 425.479 431.393 426 430.352 426ZM560.82 426H512.383C511.211 426 510.56 425.349 510.43 424.047L455.156 149.242C454.896 148.201 455.417 147.68 456.719 147.68H502.031C503.073 147.68 503.724 148.201 503.984 149.242L536.797 332.445L568.828 149.242C569.089 148.201 569.74 147.68 570.781 147.68H615.508C616.94 147.68 617.461 148.201 617.07 149.242L562.773 424.047C562.643 425.349 561.992 426 560.82 426Z" fill="url(#paint1_linear_106_2)"/>
<path d="M144 551V462.5H148.5V551H144ZM153 551V462.5H166.5V551H153ZM171 551V462.5H175.5V551H171ZM189 551V462.5H202.5V551H189ZM207 551V462.5H211.5V551H207ZM170.55 595.55H177.45V567.35H171V564.05H188.25V567.35H181.35V595.55H188.55V598.85H170.55V595.55ZM216.07 551V462.5H220.57V551H216.07ZM225.07 551V462.5H229.57V551H225.07ZM234.07 551V462.5H247.57V551H234.07ZM252.07 551V462.5H256.57V551H252.07ZM270.07 551V462.5H283.57V551H270.07ZM240.97 564.05H244.72L259.27 589.85V564.05H263.62V564.5C263.32 564.7 263.17 564.95 263.17 565.25C263.07 565.45 263.02 565.9 263.02 566.6V598.85H260.02L244.57 571.55V598.85H240.97V564.05ZM288.141 551V462.5H292.641V551H288.141ZM297.141 551V462.5H310.641V551H297.141ZM315.141 551V462.5H319.641V551H315.141ZM324.141 551V462.5H337.641V551H324.141ZM351.141 551V462.5H355.641V551H351.141ZM323.991 599.45C319.491 599.45 315.841 597.95 313.041 594.95L315.141 591.5L315.291 591.05L315.741 591.2C315.741 591.3 315.791 591.5 315.891 591.8C315.891 592 315.991 592.25 316.191 592.55C316.291 592.75 316.491 592.95 316.791 593.15C318.891 594.95 321.491 595.85 324.591 595.85C326.591 595.85 328.291 595.3 329.691 594.2C331.091 593 331.791 591.6 331.791 590C331.791 588.9 331.541 587.95 331.041 587.15C330.641 586.45 329.891 585.75 328.791 585.05C327.691 584.35 325.991 583.5 323.691 582.5C320.291 581.2 317.841 579.7 316.341 578C314.941 576.3 314.241 574.4 314.241 572.3C314.241 569.7 315.191 567.6 317.091 566C318.991 564.4 321.541 563.6 324.741 563.6C326.641 563.6 328.441 564 330.141 564.8C331.741 565.6 333.191 566.65 334.491 567.95L331.941 571.4L331.641 571.1C331.641 571 331.591 570.85 331.491 570.65C331.491 570.35 331.391 570.1 331.191 569.9C331.091 569.6 330.891 569.35 330.591 569.15C329.791 568.35 328.841 567.75 327.741 567.35C326.741 567.05 325.541 566.9 324.141 566.9C322.341 566.9 320.941 567.4 319.941 568.4C318.841 569.4 318.291 570.6 318.291 572C318.291 573.1 318.491 574.05 318.891 574.85C319.391 575.65 320.241 576.4 321.441 577.1C322.641 577.9 324.441 578.75 326.841 579.65C330.141 581.05 332.441 582.45 333.741 583.85C334.941 585.35 335.541 587.2 335.541 589.4C335.541 591.1 335.141 592.7 334.341 594.2C333.441 595.7 332.141 596.95 330.441 597.95C328.641 598.95 326.491 599.45 323.991 599.45ZM360.211 551V462.5H364.711V551H360.211ZM369.211 551V462.5H382.711V551H369.211ZM387.211 551V462.5H391.711V551H387.211ZM405.211 551V462.5H418.711V551H405.211ZM423.211 551V462.5H427.711V551H423.211ZM386.761 595.55H393.661V567.35H387.211V564.05H404.461V567.35H397.561V595.55H404.761V598.85H386.761V595.55ZM432.281 551V462.5H436.781V551H432.281ZM441.281 551V462.5H445.781V551H441.281ZM450.281 551V462.5H463.781V551H450.281ZM477.281 551V462.5H481.781V551H477.281ZM486.281 551V462.5H499.781V551H486.281ZM457.331 564.05H465.431C468.331 564.05 470.581 564.45 472.181 565.25C473.881 566.05 475.331 567.25 476.531 568.85C478.831 571.85 479.981 576.1 479.981 581.6C479.781 587.3 478.481 591.6 476.081 594.5C473.681 597.5 469.931 598.95 464.831 598.85H457.331V564.05ZM464.531 595.85C472.231 595.85 476.081 591.2 476.081 581.9C476.081 577.2 475.231 573.6 473.531 571.1C471.731 568.6 468.931 567.35 465.131 567.35H461.081V595.85H464.531ZM504.352 551V462.5H517.852V551H504.352ZM522.352 551V462.5H526.852V551H522.352ZM531.352 551V462.5H544.852V551H531.352ZM558.352 551V462.5H562.852V551H558.352ZM567.352 551V462.5H571.852V551H567.352ZM529.702 564.05H551.002V567.5H533.302V578.9H548.002V582.5H533.302V595.4H550.852V598.85H529.702V564.05Z" fill="white"/>
</g>
<defs>
<linearGradient id="paint0_linear_106_2" x1="360.5" y1="0" x2="360.5" y2="721" gradientUnits="userSpaceOnUse">
<stop/>
<stop offset="1" stop-opacity="0.8"/>
</linearGradient>
<linearGradient id="paint1_linear_106_2" x1="360" y1="-62" x2="360" y2="661" gradientUnits="userSpaceOnUse">
<stop stop-color="white"/>
<stop offset="1" stop-color="#E3EEEA"/>
</linearGradient>
<clipPath id="clip0_106_2">
<rect width="721" height="721" rx="150" fill="white"/>
</clipPath>
</defs>
</svg>
