<svg width="1758" height="759" viewBox="0 0 1758 759" fill="none" xmlns="http://www.w3.org/2000/svg">
<g filter="url(#filter0_d_122_10)">
<path d="M93.9258 512.59L18.6621 513C17.2949 513 16.6113 512.316 16.6113 510.949L17.4316 222.404C17.4316 221.311 17.9785 220.764 19.0723 220.764L97.6172 220.354C113.203 219.943 127.285 223.498 139.863 231.018C152.578 238.537 162.695 248.723 170.215 261.574C177.871 274.289 181.699 288.371 181.699 303.82V424.406C181.699 440.539 177.803 455.305 170.01 468.703C162.08 481.965 151.553 492.561 138.428 500.49C125.303 508.283 110.469 512.316 93.9258 512.59ZM97.6172 270.598L68.291 271.008L67.8809 461.32H93.9258C104.316 461.32 113.066 457.697 120.176 450.451C127.285 443.205 130.84 434.523 130.84 424.406V303.41C130.84 294.523 127.559 286.799 120.996 280.236C114.434 273.537 106.641 270.324 97.6172 270.598ZM352.119 513H216.357C215.264 513 214.717 512.316 214.717 510.949L215.127 222.404C215.127 221.311 215.674 220.764 216.768 220.764H351.709C352.803 220.764 353.35 221.447 353.35 222.814V269.777C353.35 270.871 352.803 271.418 351.709 271.418H265.576V337.043H351.709C352.803 337.043 353.35 337.59 353.35 338.684L353.76 386.262C353.76 387.355 353.213 387.902 352.119 387.902H265.576V461.32H352.119C353.213 461.32 353.76 462.004 353.76 463.371V511.359C353.76 512.453 353.213 513 352.119 513ZM489.111 513H438.252C437.021 513 436.338 512.316 436.201 510.949L378.164 222.404C377.891 221.311 378.438 220.764 379.805 220.764H427.383C428.477 220.764 429.16 221.311 429.434 222.404L463.887 414.768L497.52 222.404C497.793 221.311 498.477 220.764 499.57 220.764H546.533C548.037 220.764 548.584 221.311 548.174 222.404L491.162 510.949C491.025 512.316 490.342 513 489.111 513Z" fill="url(#paint0_linear_122_10)"/>
<path d="M622.412 513H574.834C573.467 513 572.783 512.316 572.783 510.949L573.193 222.404C573.193 221.311 573.74 220.764 574.834 220.764H622.002C623.096 220.764 623.643 221.311 623.643 222.404L624.053 510.949C624.053 512.316 623.506 513 622.412 513ZM706.699 513H664.658C662.471 513 661.377 512.043 661.377 510.129L660.967 224.045C660.967 221.857 662.061 220.764 664.248 220.764H702.188L773.145 386.262L771.094 224.045C771.094 221.857 772.324 220.764 774.785 220.764H816.416C818.057 220.764 818.877 221.857 818.877 224.045L819.287 510.539C819.287 512.18 818.604 513 817.236 513H780.322L707.52 358.371L710.596 509.719C710.596 511.906 709.297 513 706.699 513ZM927.158 517.102C912.256 517.102 898.516 513.273 885.938 505.617C873.496 497.961 863.516 487.775 855.996 475.061C848.613 462.209 844.922 448.127 844.922 432.814V413.537C844.922 412.033 845.605 411.281 846.973 411.281H894.141C895.234 411.281 895.781 412.033 895.781 413.537V432.814C895.781 441.975 898.857 449.904 905.01 456.604C911.162 463.166 918.545 466.447 927.158 466.447C935.908 466.447 943.359 463.098 949.512 456.398C955.664 449.562 958.74 441.701 958.74 432.814C958.74 422.561 952.041 413.605 938.643 405.949C936.455 404.582 933.584 402.941 930.029 401.027C926.611 398.977 922.51 396.652 917.725 394.055C912.939 391.457 908.291 388.928 903.779 386.467C899.268 383.869 894.893 381.408 890.654 379.084C875.342 370.061 863.926 358.781 856.406 345.246C849.023 331.574 845.332 316.262 845.332 299.309C845.332 283.723 849.16 269.641 856.816 257.062C864.473 244.621 874.453 234.777 886.758 227.531C899.199 220.148 912.666 216.457 927.158 216.457C942.061 216.457 955.732 220.148 968.174 227.531C980.615 235.051 990.527 245.031 997.91 257.473C1005.43 269.914 1009.19 283.859 1009.19 299.309V333.762C1009.19 334.855 1008.64 335.402 1007.55 335.402H960.381C959.287 335.402 958.74 334.855 958.74 333.762L958.33 299.309C958.33 289.465 955.254 281.467 949.102 275.314C942.949 269.162 935.635 266.086 927.158 266.086C918.545 266.086 911.162 269.367 905.01 275.93C898.857 282.492 895.781 290.285 895.781 299.309C895.781 308.469 897.695 316.125 901.523 322.277C905.488 328.43 912.666 334.309 923.057 339.914C924.15 340.461 926.68 341.828 930.645 344.016C934.609 346.203 938.984 348.664 943.77 351.398C948.691 353.996 953.135 356.389 957.1 358.576C961.064 360.627 963.457 361.857 964.277 362.268C978.223 370.061 989.229 379.631 997.295 390.979C1005.5 402.326 1009.6 416.271 1009.6 432.814C1009.6 448.811 1005.91 463.166 998.525 475.881C991.006 488.596 981.025 498.645 968.584 506.027C956.143 513.41 942.334 517.102 927.158 517.102ZM1088.35 513H1040.77C1039.4 513 1038.72 512.316 1038.72 510.949L1039.13 222.404C1039.13 221.311 1039.68 220.764 1040.77 220.764H1087.94C1089.03 220.764 1089.58 221.311 1089.58 222.404L1089.99 510.949C1089.99 512.316 1089.44 513 1088.35 513ZM1204.22 512.59L1128.96 513C1127.59 513 1126.9 512.316 1126.9 510.949L1127.72 222.404C1127.72 221.311 1128.27 220.764 1129.37 220.764L1207.91 220.354C1223.5 219.943 1237.58 223.498 1250.16 231.018C1262.87 238.537 1272.99 248.723 1280.51 261.574C1288.16 274.289 1291.99 288.371 1291.99 303.82V424.406C1291.99 440.539 1288.1 455.305 1280.3 468.703C1272.37 481.965 1261.85 492.561 1248.72 500.49C1235.6 508.283 1220.76 512.316 1204.22 512.59ZM1207.91 270.598L1178.58 271.008L1178.17 461.32H1204.22C1214.61 461.32 1223.36 457.697 1230.47 450.451C1237.58 443.205 1241.13 434.523 1241.13 424.406V303.41C1241.13 294.523 1237.85 286.799 1231.29 280.236C1224.73 273.537 1216.93 270.324 1207.91 270.598ZM1462.41 513H1326.65C1325.56 513 1325.01 512.316 1325.01 510.949L1325.42 222.404C1325.42 221.311 1325.97 220.764 1327.06 220.764H1462C1463.1 220.764 1463.64 221.447 1463.64 222.814V269.777C1463.64 270.871 1463.1 271.418 1462 271.418H1375.87V337.043H1462C1463.1 337.043 1463.64 337.59 1463.64 338.684L1464.05 386.262C1464.05 387.355 1463.51 387.902 1462.41 387.902H1375.87V461.32H1462.41C1463.51 461.32 1464.05 462.004 1464.05 463.371V511.359C1464.05 512.453 1463.51 513 1462.41 513Z" fill="url(#paint1_linear_122_10)"/>
</g>
<g filter="url(#filter1_d_122_10)">
<path d="M1733 486.342L1607.53 360.5L1733 234.657L1694.37 196L1530 360.5L1694.37 525L1733 486.342Z" fill="white"/>
</g>
<defs>
<filter id="filter0_d_122_10" x="16.6113" y="216.457" width="1462.44" height="315.645" filterUnits="userSpaceOnUse" color-interpolation-filters="sRGB">
<feFlood flood-opacity="0" result="BackgroundImageFix"/>
<feColorMatrix in="SourceAlpha" type="matrix" values="0 0 0 0 0 0 0 0 0 0 0 0 0 0 0 0 0 0 127 0" result="hardAlpha"/>
<feOffset dx="15" dy="15"/>
<feComposite in2="hardAlpha" operator="out"/>
<feColorMatrix type="matrix" values="0 0 0 0 0 0 0 0 0 0 0 0 0 0 0 0 0 0 1 0"/>
<feBlend mode="normal" in2="BackgroundImageFix" result="effect1_dropShadow_122_10"/>
<feBlend mode="normal" in="SourceGraphic" in2="effect1_dropShadow_122_10" result="shape"/>
</filter>
<filter id="filter1_d_122_10" x="1530" y="196" width="228" height="333" filterUnits="userSpaceOnUse" color-interpolation-filters="sRGB">
<feFlood flood-opacity="0" result="BackgroundImageFix"/>
<feColorMatrix in="SourceAlpha" type="matrix" values="0 0 0 0 0 0 0 0 0 0 0 0 0 0 0 0 0 0 127 0" result="hardAlpha"/>
<feOffset dx="25" dy="4"/>
<feComposite in2="hardAlpha" operator="out"/>
<feColorMatrix type="matrix" values="0 0 0 0 0.219608 0 0 0 0 0.490196 0 0 0 0 1 0 0 0 1 0"/>
<feBlend mode="normal" in2="BackgroundImageFix" result="effect1_dropShadow_122_10"/>
<feBlend mode="normal" in="SourceGraphic" in2="effect1_dropShadow_122_10" result="shape"/>
</filter>
<linearGradient id="paint0_linear_122_10" x1="742.5" y1="0" x2="742.5" y2="759" gradientUnits="userSpaceOnUse">
<stop stop-color="white"/>
<stop offset="1" stop-color="#E3EEEA"/>
</linearGradient>
<linearGradient id="paint1_linear_122_10" x1="742.5" y1="0" x2="742.5" y2="759" gradientUnits="userSpaceOnUse">
<stop stop-color="#5433FF"/>
<stop offset="1" stop-color="#20BDFF"/>
</linearGradient>
</defs>
</svg>
